{
    "asset" : {
        "generator" : "Khronos glTF Blender I/O v1.6.16",
        "version" : "2.0"
    },
    "scene" : 0,
    "scenes" : [
        {
            "name" : "Scene",
            "nodes" : [
                5,
                6,
                7
            ]
        }
    ],
    "nodes" : [
        {
            "mesh" : 0,
            "name" : "bottom"
        },
        {
            "mesh" : 1,
            "name" : "Curve_Apple Logo_0"
        },
        {
            "children" : [
                1
            ],
            "name" : "curve",
            "rotation" : [
                0,
                0.009728106670081615,
                -0.9999526739120483,
                2.816913706737978e-07
            ],
            "translation" : [
                -0.0011288861278444529,
                0,
                0.0013911784626543522
            ]
        },
        {
            "mesh" : 2,
            "name" : "side"
        },
        {
            "mesh" : 3,
            "name" : "top"
        },
        {
            "children" : [
                0,
                2,
                3,
                4
            ],
            "name" : "target",
            "rotation" : [
                -0.7071068286895752,
                0,
                0,
                0.7071067094802856
            ],
            "scale" : [
                100,
                100,
                100
            ]
        },
        {
            "name" : "Light",
            "rotation" : [
                0.16907575726509094,
                0.7558803558349609,
                -0.27217137813568115,
                0.570947527885437
            ],
            "translation" : [
                4.076245307922363,
                5.903861999511719,
                -1.0054539442062378
            ]
        },
        {
            "name" : "Camera",
            "rotation" : [
                0.483536034822464,
                0.33687159419059753,
                -0.20870360732078552,
                0.7804827094078064
            ],
            "translation" : [
                7.358891487121582,
                4.958309173583984,
                6.925790786743164
            ]
        }
    ],
    "materials" : [
        {
            "doubleSided" : true,
            "name" : "Body_Bottom",
            "normalTexture" : {
                "index" : 0
            },
            "pbrMetallicRoughness" : {
                "baseColorTexture" : {
                    "index" : 1
                },
                "roughnessFactor" : 0.5960000157356262
            }
        },
        {
            "doubleSided" : true,
            "emissiveFactor" : [
                1,
                1,
                1
            ],
            "name" : "Apple_Logo",
            "pbrMetallicRoughness" : {
                "baseColorFactor" : [
                    0.800000011920929,
                    0.800000011920929,
                    0.800000011920929,
                    1
                ],
                "metallicFactor" : 0,
                "roughnessFactor" : 0.04229484871029854
            }
        },
        {
            "doubleSided" : true,
            "name" : "Body_Side",
            "normalTexture" : {
                "index" : 2
            },
            "pbrMetallicRoughness" : {
                "baseColorTexture" : {
                    "index" : 3
                },
                "roughnessFactor" : 0.40400001406669617
            }
        },
        {
            "doubleSided" : true,
            "name" : "Body_Top",
            "pbrMetallicRoughness" : {
                "baseColorTexture" : {
                    "index" : 4
                },
                "roughnessFactor" : 0.40429773926734924
            }
        }
    ],
    "meshes" : [
        {
            "name" : "Macbook_Body Bottom_0",
            "primitives" : [
                {
                    "attributes" : {
                        "POSITION" : 0,
                        "NORMAL" : 1,
                        "TEXCOORD_0" : 2
                    },
                    "indices" : 3,
                    "material" : 0
                }
            ]
        },
        {
            "name" : "Curve_Apple Logo_0",
            "primitives" : [
                {
                    "attributes" : {
                        "POSITION" : 4,
                        "NORMAL" : 5
                    },
                    "indices" : 6,
                    "material" : 1
                }
            ]
        },
        {
            "name" : "Macbook_Body Side_0",
            "primitives" : [
                {
                    "attributes" : {
                        "POSITION" : 7,
                        "NORMAL" : 8,
                        "TEXCOORD_0" : 9
                    },
                    "indices" : 10,
                    "material" : 2
                }
            ]
        },
        {
            "name" : "Macbook_Body Top_0",
            "primitives" : [
                {
                    "attributes" : {
                        "POSITION" : 11,
                        "NORMAL" : 12,
                        "TEXCOORD_0" : 13
                    },
                    "indices" : 14,
                    "material" : 3
                }
            ]
        }
    ],
    "textures" : [
        {
            "sampler" : 0,
            "source" : 0
        },
        {
            "sampler" : 0,
            "source" : 1
        },
        {
            "sampler" : 0,
            "source" : 2
        },
        {
            "sampler" : 0,
            "source" : 3
        },
        {
            "sampler" : 0,
            "source" : 4
        }
    ],
    "images" : [
        {
            "bufferView" : 4,
            "mimeType" : "image/png",
            "name" : "Body_Bottom_normal"
        },
        {
            "bufferView" : 5,
            "mimeType" : "image/png",
            "name" : "Body_Bottom_baseColor"
        },
        {
            "bufferView" : 13,
            "mimeType" : "image/png",
            "name" : "Body_Side_normal"
        },
        {
            "bufferView" : 14,
            "mimeType" : "image/png",
            "name" : "Body_Side_baseColor"
        },
        {
            "bufferView" : 19,
            "mimeType" : "image/png",
            "name" : "Body_Top_baseColor"
        }
    ],
    "accessors" : [
        {
            "bufferView" : 0,
            "componentType" : 5126,
            "count" : 191,
            "max" : [
                0.16255998611450195,
                0.1135379895567894,
                0.000635741394944489
            ],
            "min" : [
                -0.16255998611450195,
                -0.1135379895567894,
                -0.004269670695066452
            ],
            "type" : "VEC3"
        },
        {
            "bufferView" : 1,
            "componentType" : 5126,
            "count" : 191,
            "type" : "VEC3"
        },
        {
            "bufferView" : 2,
            "componentType" : 5126,
            "count" : 191,
            "type" : "VEC2"
        },
        {
            "bufferView" : 3,
            "componentType" : 5123,
            "count" : 657,
            "type" : "SCALAR"
        },
        {
            "bufferView" : 6,
            "componentType" : 5126,
            "count" : 3365,
            "max" : [
                0.01395893469452858,
                0.019754735752940178,
                0.0010366644710302353
            ],
            "min" : [
                -0.02112792432308197,
                -0.020840492099523544,
                -0.0005394500331021845
            ],
            "type" : "VEC3"
        },
        {
            "bufferView" : 7,
            "componentType" : 5126,
            "count" : 3365,
            "type" : "VEC3"
        },
        {
            "bufferView" : 8,
            "componentType" : 5123,
            "count" : 4986,
            "type" : "SCALAR"
        },
        {
            "bufferView" : 9,
            "componentType" : 5126,
            "count" : 144,
            "max" : [
                0.16255998611450195,
                0.1135379895567894,
                0.000635741394944489
            ],
            "min" : [
                -0.16255998611450195,
                -0.1135379895567894,
                -0.003912023268640041
            ],
            "type" : "VEC3"
        },
        {
            "bufferView" : 10,
            "componentType" : 5126,
            "count" : 144,
            "type" : "VEC3"
        },
        {
            "bufferView" : 11,
            "componentType" : 5126,
            "count" : 144,
            "type" : "VEC2"
        },
        {
            "bufferView" : 12,
            "componentType" : 5123,
            "count" : 432,
            "type" : "SCALAR"
        },
        {
            "bufferView" : 15,
            "componentType" : 5126,
            "count" : 332,
            "max" : [
                0.16255998611450195,
                0.1135379895567894,
                0.004239909816533327
            ],
            "min" : [
                -0.16255998611450195,
                -0.11335420608520508,
                -0.0022392189130187035
            ],
            "type" : "VEC3"
        },
        {
            "bufferView" : 16,
            "componentType" : 5126,
            "count" : 332,
            "type" : "VEC3"
        },
        {
            "bufferView" : 17,
            "componentType" : 5126,
            "count" : 332,
            "type" : "VEC2"
        },
        {
            "bufferView" : 18,
            "componentType" : 5123,
            "count" : 1134,
            "type" : "SCALAR"
        }
    ],
    "bufferViews" : [
        {
            "buffer" : 0,
            "byteLength" : 2292,
            "byteOffset" : 0
        },
        {
            "buffer" : 0,
            "byteLength" : 2292,
            "byteOffset" : 2292
        },
        {
            "buffer" : 0,
            "byteLength" : 1528,
            "byteOffset" : 4584
        },
        {
            "buffer" : 0,
            "byteLength" : 1314,
            "byteOffset" : 6112
        },
        {
            "buffer" : 0,
            "byteLength" : 243542,
            "byteOffset" : 7428
        },
        {
            "buffer" : 0,
            "byteLength" : 15767,
            "byteOffset" : 250972
        },
        {
            "buffer" : 0,
            "byteLength" : 40380,
            "byteOffset" : 266740
        },
        {
            "buffer" : 0,
            "byteLength" : 40380,
            "byteOffset" : 307120
        },
        {
            "buffer" : 0,
            "byteLength" : 9972,
            "byteOffset" : 347500
        },
        {
            "buffer" : 0,
            "byteLength" : 1728,
            "byteOffset" : 357472
        },
        {
            "buffer" : 0,
            "byteLength" : 1728,
            "byteOffset" : 359200
        },
        {
            "buffer" : 0,
            "byteLength" : 1152,
            "byteOffset" : 360928
        },
        {
            "buffer" : 0,
            "byteLength" : 864,
            "byteOffset" : 362080
        },
        {
            "buffer" : 0,
            "byteLength" : 47495,
            "byteOffset" : 362944
        },
        {
            "buffer" : 0,
            "byteLength" : 14465,
            "byteOffset" : 410440
        },
        {
            "buffer" : 0,
            "byteLength" : 3984,
            "byteOffset" : 424908
        },
        {
            "buffer" : 0,
            "byteLength" : 3984,
            "byteOffset" : 428892
        },
        {
            "buffer" : 0,
            "byteLength" : 2656,
            "byteOffset" : 432876
        },
        {
            "buffer" : 0,
            "byteLength" : 2268,
            "byteOffset" : 435532
        },
        {
            "buffer" : 0,
            "byteLength" : 626,
            "byteOffset" : 437800
        }
    ],
    "samplers" : [
        {
            "magFilter" : 9729,
            "minFilter" : 9987
        }
    ],
    "buffers" : [
        {
            "byteLength" : 438428,
            "uri" : "data:application/octet-stream;base64,"
        }
    ]
}
