{
    "asset" : {
        "generator" : "Khronos glTF Blender I/O v1.6.16",
        "version" : "2.0"
    },
    "scene" : 0,
    "scenes" : [
        {
            "name" : "Scene",
            "nodes" : [
                2,
                3,
                4
            ]
        }
    ],
    "nodes" : [
        {
            "mesh" : 0,
            "name" : "main",
            "scale" : [
                0.010282756760716438,
                0.010282756760716438,
                0.010282756760716438
            ]
        },
        {
            "mesh" : 1,
            "name" : "surface",
            "scale" : [
                0.010282756760716438,
                0.010282756760716438,
                0.010282756760716438
            ]
        },
        {
            "children" : [
                0,
                1
            ],
            "name" : "mug",
            "rotation" : [
                -0.7007111310958862,
                0.0948895663022995,
                0.0948895663022995,
                0.7007110714912415
            ],
            "scale" : [
                100.00000762939453,
                100.00000762939453,
                100
            ]
        },
        {
            "name" : "Light",
            "rotation" : [
                0.16907575726509094,
                0.7558803558349609,
                -0.27217137813568115,
                0.570947527885437
            ],
            "translation" : [
                4.076245307922363,
                5.903861999511719,
                -1.0054539442062378
            ]
        },
        {
            "name" : "Camera",
            "rotation" : [
                0.483536034822464,
                0.33687159419059753,
                -0.20870360732078552,
                0.7804827094078064
            ],
            "translation" : [
                7.358891487121582,
                4.958309173583984,
                6.925790786743164
            ]
        }
    ],
    "materials" : [
        {
            "doubleSided" : true,
            "name" : "Material.001",
            "pbrMetallicRoughness" : {
                "metallicFactor" : 0,
                "roughnessFactor" : 0.699999988079071
            }
        },
        {
            "doubleSided" : true,
            "name" : "Material.003",
            "pbrMetallicRoughness" : {
                "baseColorTexture" : {
                    "index" : 0
                },
                "metallicFactor" : 0,
                "roughnessFactor" : 0.699999988079071
            }
        }
    ],
    "meshes" : [
        {
            "name" : "material.001",
            "primitives" : [
                {
                    "attributes" : {
                        "POSITION" : 0,
                        "NORMAL" : 1,
                        "TEXCOORD_0" : 2
                    },
                    "indices" : 3,
                    "material" : 0
                }
            ]
        },
        {
            "name" : "material",
            "primitives" : [
                {
                    "attributes" : {
                        "POSITION" : 4,
                        "NORMAL" : 5,
                        "TEXCOORD_0" : 6
                    },
                    "indices" : 7,
                    "material" : 1
                }
            ]
        }
    ],
    "textures" : [
        {
            "sampler" : 0,
            "source" : 0
        }
    ],
    "images" : [
        {
            "bufferView" : 8,
            "mimeType" : "image/png",
            "name" : "w"
        }
    ],
    "accessors" : [
        {
            "bufferView" : 0,
            "componentType" : 5126,
            "count" : 9760,
            "max" : [
                0.9935951828956604,
                1.7727397680282593,
                0.9997243285179138
            ],
            "min" : [
                -0.9935951828956604,
                -0.9935951232910156,
                -0.9968987107276917
            ],
            "type" : "VEC3"
        },
        {
            "bufferView" : 1,
            "componentType" : 5126,
            "count" : 9760,
            "type" : "VEC3"
        },
        {
            "bufferView" : 2,
            "componentType" : 5126,
            "count" : 9760,
            "type" : "VEC2"
        },
        {
            "bufferView" : 3,
            "componentType" : 5123,
            "count" : 44400,
            "type" : "SCALAR"
        },
        {
            "bufferView" : 4,
            "componentType" : 5126,
            "count" : 410,
            "max" : [
                -0.42481425404548645,
                0.8981981873512268,
                0.7327948808670044
            ],
            "min" : [
                -0.9935951828956604,
                -0.7362033724784851,
                -0.6878485083580017
            ],
            "type" : "VEC3"
        },
        {
            "bufferView" : 5,
            "componentType" : 5126,
            "count" : 410,
            "type" : "VEC3"
        },
        {
            "bufferView" : 6,
            "componentType" : 5126,
            "count" : 410,
            "type" : "VEC2"
        },
        {
            "bufferView" : 7,
            "componentType" : 5123,
            "count" : 2160,
            "type" : "SCALAR"
        }
    ],
    "bufferViews" : [
        {
            "buffer" : 0,
            "byteLength" : 117120,
            "byteOffset" : 0
        },
        {
            "buffer" : 0,
            "byteLength" : 117120,
            "byteOffset" : 117120
        },
        {
            "buffer" : 0,
            "byteLength" : 78080,
            "byteOffset" : 234240
        },
        {
            "buffer" : 0,
            "byteLength" : 88800,
            "byteOffset" : 312320
        },
        {
            "buffer" : 0,
            "byteLength" : 4920,
            "byteOffset" : 401120
        },
        {
            "buffer" : 0,
            "byteLength" : 4920,
            "byteOffset" : 406040
        },
        {
            "buffer" : 0,
            "byteLength" : 3280,
            "byteOffset" : 410960
        },
        {
            "buffer" : 0,
            "byteLength" : 4320,
            "byteOffset" : 414240
        },
        {
            "buffer" : 0,
            "byteLength" : 6838,
            "byteOffset" : 418560
        }
    ],
    "samplers" : [
        {
            "magFilter" : 9729,
            "minFilter" : 9987
        }
    ],
    "buffers" : [
        {
            "byteLength" : 425400,
            "uri" : "data:application/octet-stream;base64,"
        }
    ]
}
