{
    "asset" : {
        "generator" : "Khronos glTF Blender I/O v1.6.16",
        "version" : "2.0"
    },
    "scene" : 0,
    "scenes" : [
        {
            "name" : "Scene",
            "nodes" : [
                3,
                4,
                5
            ]
        }
    ],
    "nodes" : [
        {
            "mesh" : 0,
            "name" : "main-2"
        },
        {
            "mesh" : 1,
            "name" : "main_1"
        },
        {
            "mesh" : 2,
            "name" : "surface"
        },
        {
            "children" : [
                0,
                1,
                2
            ],
            "name" : "mug",
            "rotation" : [
                -0.7071067094802856,
                0,
                0,
                0.7071068286895752
            ],
            "scale" : [
                0.3607400059700012,
                0.3607400059700012,
                0.3607400059700012
            ],
            "translation" : [
                0,
                0,
                -0.001019999966956675
            ]
        },
        {
            "name" : "Light",
            "rotation" : [
                0.16907575726509094,
                0.7558803558349609,
                -0.27217137813568115,
                0.570947527885437
            ],
            "translation" : [
                4.076245307922363,
                5.903861999511719,
                -1.0054539442062378
            ]
        },
        {
            "name" : "Camera",
            "rotation" : [
                0.483536034822464,
                0.33687159419059753,
                -0.20870360732078552,
                0.7804827094078064
            ],
            "translation" : [
                7.358891487121582,
                4.958309173583984,
                6.925790786743164
            ]
        }
    ],
    "materials" : [
        {
            "doubleSided" : true,
            "name" : "green",
            "pbrMetallicRoughness" : {}
        },
        {
            "doubleSided" : true,
            "name" : "Porcelin_White",
            "pbrMetallicRoughness" : {}
        },
        {
            "doubleSided" : true,
            "name" : "Front",
            "pbrMetallicRoughness" : {}
        }
    ],
    "meshes" : [
        {
            "name" : "Mug_1",
            "primitives" : [
                {
                    "attributes" : {
                        "POSITION" : 0,
                        "NORMAL" : 1,
                        "TEXCOORD_0" : 2
                    },
                    "indices" : 3,
                    "material" : 0
                }
            ]
        },
        {
            "name" : "Mug_2",
            "primitives" : [
                {
                    "attributes" : {
                        "POSITION" : 4,
                        "NORMAL" : 5,
                        "TEXCOORD_0" : 6
                    },
                    "indices" : 7,
                    "material" : 1
                }
            ]
        },
        {
            "name" : "Mug_0",
            "primitives" : [
                {
                    "attributes" : {
                        "POSITION" : 8,
                        "NORMAL" : 9,
                        "TEXCOORD_0" : 10
                    },
                    "indices" : 11,
                    "material" : 2
                }
            ]
        }
    ],
    "accessors" : [
        {
            "bufferView" : 0,
            "componentType" : 5126,
            "count" : 3222,
            "max" : [
                1.5314199924468994,
                1.52961003780365,
                3.598870038986206
            ],
            "min" : [
                -1.5302200317382812,
                -1.52961003780365,
                0.023749999701976776
            ],
            "type" : "VEC3"
        },
        {
            "bufferView" : 1,
            "componentType" : 5126,
            "count" : 3222,
            "type" : "VEC3"
        },
        {
            "bufferView" : 2,
            "componentType" : 5126,
            "count" : 3222,
            "type" : "VEC2"
        },
        {
            "bufferView" : 3,
            "componentType" : 5123,
            "count" : 18000,
            "type" : "SCALAR"
        },
        {
            "bufferView" : 4,
            "componentType" : 5126,
            "count" : 41219,
            "max" : [
                2.7121500968933105,
                1.53288996219635,
                3.592639923095703
            ],
            "min" : [
                -1.532520055770874,
                -1.53288996219635,
                0.0036700000055134296
            ],
            "type" : "VEC3"
        },
        {
            "bufferView" : 5,
            "componentType" : 5126,
            "count" : 41219,
            "type" : "VEC3"
        },
        {
            "bufferView" : 6,
            "componentType" : 5126,
            "count" : 41219,
            "type" : "VEC2"
        },
        {
            "bufferView" : 7,
            "componentType" : 5123,
            "count" : 241362,
            "type" : "SCALAR"
        },
        {
            "bufferView" : 8,
            "componentType" : 5126,
            "count" : 1519,
            "max" : [
                0.9512899518013,
                -0.8573799133300781,
                3.0545997619628906
            ],
            "min" : [
                -0.8105299472808838,
                -1.339289903640747,
                0.940839946269989
            ],
            "type" : "VEC3"
        },
        {
            "bufferView" : 9,
            "componentType" : 5126,
            "count" : 1519,
            "type" : "VEC3"
        },
        {
            "bufferView" : 10,
            "componentType" : 5126,
            "count" : 1519,
            "type" : "VEC2"
        },
        {
            "bufferView" : 11,
            "componentType" : 5123,
            "count" : 8712,
            "type" : "SCALAR"
        }
    ],
    "bufferViews" : [
        {
            "buffer" : 0,
            "byteLength" : 38664,
            "byteOffset" : 0
        },
        {
            "buffer" : 0,
            "byteLength" : 38664,
            "byteOffset" : 38664
        },
        {
            "buffer" : 0,
            "byteLength" : 25776,
            "byteOffset" : 77328
        },
        {
            "buffer" : 0,
            "byteLength" : 36000,
            "byteOffset" : 103104
        },
        {
            "buffer" : 0,
            "byteLength" : 494628,
            "byteOffset" : 139104
        },
        {
            "buffer" : 0,
            "byteLength" : 494628,
            "byteOffset" : 633732
        },
        {
            "buffer" : 0,
            "byteLength" : 329752,
            "byteOffset" : 1128360
        },
        {
            "buffer" : 0,
            "byteLength" : 482724,
            "byteOffset" : 1458112
        },
        {
            "buffer" : 0,
            "byteLength" : 18228,
            "byteOffset" : 1940836
        },
        {
            "buffer" : 0,
            "byteLength" : 18228,
            "byteOffset" : 1959064
        },
        {
            "buffer" : 0,
            "byteLength" : 12152,
            "byteOffset" : 1977292
        },
        {
            "buffer" : 0,
            "byteLength" : 17424,
            "byteOffset" : 1989444
        }
    ],
    "buffers" : [
        {
            "byteLength" : 2006868,
            "uri" : "data:application/octet-stream;base64,"
        }
    ]
}
