{
    "asset" : {
        "generator" : "Khronos glTF Blender I/O v1.6.16",
        "version" : "2.0"
    },
    "scene" : 0,
    "scenes" : [
        {
            "name" : "Scene",
            "nodes" : [
                3,
                4,
                5
            ]
        }
    ],
    "nodes" : [
        {
            "mesh" : 0,
            "name" : "main",
            "scale" : [
                0.010282756760716438,
                0.010282756760716438,
                0.010282756760716438
            ]
        },
        {
            "mesh" : 1,
            "name" : "surface_back",
            "scale" : [
                0.010282756760716438,
                0.010282756760716438,
                0.010282756760716438
            ]
        },
        {
            "mesh" : 2,
            "name" : "surface_front",
            "scale" : [
                0.010282756760716438,
                0.010282756760716438,
                0.010282756760716438
            ]
        },
        {
            "children" : [
                0,
                1,
                2
            ],
            "name" : "mug",
            "rotation" : [
                -0.7007110714912415,
                0.0948895514011383,
                0.0948895514011383,
                0.7007110118865967
            ],
            "scale" : [
                100.00000762939453,
                100.00000762939453,
                100
            ]
        },
        {
            "name" : "Light",
            "rotation" : [
                0.16907575726509094,
                0.7558803558349609,
                -0.27217137813568115,
                0.570947527885437
            ],
            "translation" : [
                4.076245307922363,
                5.903861999511719,
                -1.0054539442062378
            ]
        },
        {
            "name" : "Camera",
            "rotation" : [
                0.483536034822464,
                0.33687159419059753,
                -0.20870360732078552,
                0.7804827094078064
            ],
            "translation" : [
                7.358891487121582,
                4.958309173583984,
                6.925790786743164
            ]
        }
    ],
    "materials" : [
        {
            "doubleSided" : true,
            "name" : "Material.001",
            "pbrMetallicRoughness" : {
                "metallicFactor" : 0,
                "roughnessFactor" : 0.699999988079071
            }
        },
        {
            "doubleSided" : true,
            "name" : "Material.002",
            "pbrMetallicRoughness" : {
                "baseColorTexture" : {
                    "index" : 0
                },
                "metallicFactor" : 0,
                "roughnessFactor" : 0.5
            }
        },
        {
            "doubleSided" : true,
            "name" : "Material.003",
            "pbrMetallicRoughness" : {
                "baseColorTexture" : {
                    "index" : 1
                },
                "metallicFactor" : 0,
                "roughnessFactor" : 0.699999988079071
            }
        }
    ],
    "meshes" : [
        {
            "name" : "material.001",
            "primitives" : [
                {
                    "attributes" : {
                        "POSITION" : 0,
                        "NORMAL" : 1,
                        "TEXCOORD_0" : 2
                    },
                    "indices" : 3,
                    "material" : 0
                }
            ]
        },
        {
            "name" : "material.002",
            "primitives" : [
                {
                    "attributes" : {
                        "POSITION" : 4,
                        "NORMAL" : 5,
                        "TEXCOORD_0" : 6
                    },
                    "indices" : 7,
                    "material" : 1
                }
            ]
        },
        {
            "name" : "material",
            "primitives" : [
                {
                    "attributes" : {
                        "POSITION" : 8,
                        "NORMAL" : 9,
                        "TEXCOORD_0" : 10
                    },
                    "indices" : 11,
                    "material" : 2
                }
            ]
        }
    ],
    "textures" : [
        {
            "sampler" : 0,
            "source" : 0
        },
        {
            "sampler" : 0,
            "source" : 0
        }
    ],
    "images" : [
        {
            "bufferView" : 8,
            "mimeType" : "image/png",
            "name" : "w"
        }
    ],
    "accessors" : [
        {
            "bufferView" : 0,
            "componentType" : 5126,
            "count" : 9440,
            "max" : [
                0.9935951828956604,
                1.7727397680282593,
                0.9997243285179138
            ],
            "min" : [
                -0.9935951828956604,
                -0.9935951232910156,
                -0.9968987107276917
            ],
            "type" : "VEC3"
        },
        {
            "bufferView" : 1,
            "componentType" : 5126,
            "count" : 9440,
            "type" : "VEC3"
        },
        {
            "bufferView" : 2,
            "componentType" : 5126,
            "count" : 9440,
            "type" : "VEC2"
        },
        {
            "bufferView" : 3,
            "componentType" : 5123,
            "count" : 42186,
            "type" : "SCALAR"
        },
        {
            "bufferView" : 4,
            "componentType" : 5126,
            "count" : 420,
            "max" : [
                0.9935951828956604,
                0.5918825268745422,
                0.7327948808670044
            ],
            "min" : [
                0.19384056329727173,
                -0.9745035767555237,
                -0.6878485083580017
            ],
            "type" : "VEC3"
        },
        {
            "bufferView" : 5,
            "componentType" : 5126,
            "count" : 420,
            "type" : "VEC3"
        },
        {
            "bufferView" : 6,
            "componentType" : 5126,
            "count" : 420,
            "type" : "VEC2"
        },
        {
            "bufferView" : 7,
            "componentType" : 5123,
            "count" : 2214,
            "type" : "SCALAR"
        },
        {
            "bufferView" : 9,
            "componentType" : 5126,
            "count" : 410,
            "max" : [
                -0.42481425404548645,
                0.8981981873512268,
                0.7327948808670044
            ],
            "min" : [
                -0.9935951828956604,
                -0.7362033724784851,
                -0.6878485083580017
            ],
            "type" : "VEC3"
        },
        {
            "bufferView" : 10,
            "componentType" : 5126,
            "count" : 410,
            "type" : "VEC3"
        },
        {
            "bufferView" : 11,
            "componentType" : 5126,
            "count" : 410,
            "type" : "VEC2"
        },
        {
            "bufferView" : 12,
            "componentType" : 5123,
            "count" : 2160,
            "type" : "SCALAR"
        }
    ],
    "bufferViews" : [
        {
            "buffer" : 0,
            "byteLength" : 113280,
            "byteOffset" : 0
        },
        {
            "buffer" : 0,
            "byteLength" : 113280,
            "byteOffset" : 113280
        },
        {
            "buffer" : 0,
            "byteLength" : 75520,
            "byteOffset" : 226560
        },
        {
            "buffer" : 0,
            "byteLength" : 84372,
            "byteOffset" : 302080
        },
        {
            "buffer" : 0,
            "byteLength" : 5040,
            "byteOffset" : 386452
        },
        {
            "buffer" : 0,
            "byteLength" : 5040,
            "byteOffset" : 391492
        },
        {
            "buffer" : 0,
            "byteLength" : 3360,
            "byteOffset" : 396532
        },
        {
            "buffer" : 0,
            "byteLength" : 4428,
            "byteOffset" : 399892
        },
        {
            "buffer" : 0,
            "byteLength" : 6838,
            "byteOffset" : 404320
        },
        {
            "buffer" : 0,
            "byteLength" : 4920,
            "byteOffset" : 411160
        },
        {
            "buffer" : 0,
            "byteLength" : 4920,
            "byteOffset" : 416080
        },
        {
            "buffer" : 0,
            "byteLength" : 3280,
            "byteOffset" : 421000
        },
        {
            "buffer" : 0,
            "byteLength" : 4320,
            "byteOffset" : 424280
        }
    ],
    "samplers" : [
        {
            "magFilter" : 9729,
            "minFilter" : 9987
        }
    ],
    "buffers" : [
        {
            "byteLength" : 428600,
            "uri" : "data:application/octet-stream;base64,"
        }
    ]
}
