{
    "asset" : {
        "generator" : "Khronos glTF Blender I/O v1.6.16",
        "version" : "2.0"
    },
    "scene" : 0,
    "scenes" : [
        {
            "name" : "Scene",
            "nodes" : [
                2
            ]
        }
    ],
    "nodes" : [
        {
            "mesh" : 0,
            "name" : "surface_back",
            "translation" : [
                0,
                0,
                -3.814697265625e-06
            ]
        },
        {
            "mesh" : 1,
            "name" : "surface_front",
            "translation" : [
                0,
                0,
                -3.814697265625e-06
            ]
        },
        {
            "children" : [
                0,
                1
            ],
            "mesh" : 2,
            "name" : "tshirt",
            "rotation" : [
                0.7071068286895752,
                0,
                0,
                0.7071067094802856
            ],
            "scale" : [
                0.029080696403980255,
                0.029080696403980255,
                0.029080696403980255
            ],
            "translation" : [
                0,
                -0.6101685166358948,
                0
            ]
        }
    ],
    "materials" : [
        {
            "doubleSided" : true,
            "name" : "Material.001",
            "pbrMetallicRoughness" : {
                "baseColorTexture" : {
                    "index" : 0
                },
                "metallicFactor" : 0,
                "roughnessFactor" : 0.5
            }
        },
        {
            "doubleSided" : true,
            "name" : "Material.002",
            "pbrMetallicRoughness" : {
                "baseColorTexture" : {
                    "index" : 1
                },
                "metallicFactor" : 0,
                "roughnessFactor" : 0.5
            }
        },
        {
            "doubleSided" : true,
            "name" : "initialShadingGroup",
            "pbrMetallicRoughness" : {
                "metallicFactor" : 0,
                "roughnessFactor" : 0.5
            }
        }
    ],
    "meshes" : [
        {
            "name" : "main.001",
            "primitives" : [
                {
                    "attributes" : {
                        "POSITION" : 0,
                        "NORMAL" : 1,
                        "TEXCOORD_0" : 2
                    },
                    "indices" : 3,
                    "material" : 0
                }
            ]
        },
        {
            "name" : "uploads_files_605564_t+shirts.001",
            "primitives" : [
                {
                    "attributes" : {
                        "POSITION" : 4,
                        "NORMAL" : 5,
                        "TEXCOORD_0" : 6
                    },
                    "indices" : 7,
                    "material" : 1
                }
            ]
        },
        {
            "name" : "main",
            "primitives" : [
                {
                    "attributes" : {
                        "POSITION" : 8,
                        "NORMAL" : 9,
                        "TEXCOORD_0" : 10
                    },
                    "indices" : 11,
                    "material" : 2
                }
            ]
        }
    ],
    "textures" : [
        {
            "sampler" : 0,
            "source" : 0
        },
        {
            "sampler" : 0,
            "source" : 0
        }
    ],
    "images" : [
        {
            "bufferView" : 4,
            "mimeType" : "image/png",
            "name" : "w"
        }
    ],
    "accessors" : [
        {
            "bufferView" : 0,
            "componentType" : 5126,
            "count" : 288,
            "max" : [
                11.084061622619629,
                -8.900050163269043,
                -13.994136810302734
            ],
            "min" : [
                -9.47899341583252,
                -13.047687530517578,
                -43.88581466674805
            ],
            "type" : "VEC3"
        },
        {
            "bufferView" : 1,
            "componentType" : 5126,
            "count" : 288,
            "type" : "VEC3"
        },
        {
            "bufferView" : 2,
            "componentType" : 5126,
            "count" : 288,
            "type" : "VEC2"
        },
        {
            "bufferView" : 3,
            "componentType" : 5123,
            "count" : 1530,
            "type" : "SCALAR"
        },
        {
            "bufferView" : 5,
            "componentType" : 5126,
            "count" : 306,
            "max" : [
                10.437909126281738,
                13.935166358947754,
                -14.043407440185547
            ],
            "min" : [
                -10.441452980041504,
                9.04430866241455,
                -42.857669830322266
            ],
            "type" : "VEC3"
        },
        {
            "bufferView" : 6,
            "componentType" : 5126,
            "count" : 306,
            "type" : "VEC3"
        },
        {
            "bufferView" : 7,
            "componentType" : 5126,
            "count" : 306,
            "type" : "VEC2"
        },
        {
            "bufferView" : 8,
            "componentType" : 5123,
            "count" : 1632,
            "type" : "SCALAR"
        },
        {
            "bufferView" : 9,
            "componentType" : 5126,
            "count" : 6446,
            "max" : [
                27.597469329833984,
                13.935166358947754,
                5.756647109985352
            ],
            "min" : [
                -27.675758361816406,
                -12.940739631652832,
                -55.5881462097168
            ],
            "type" : "VEC3"
        },
        {
            "bufferView" : 10,
            "componentType" : 5126,
            "count" : 6446,
            "type" : "VEC3"
        },
        {
            "bufferView" : 11,
            "componentType" : 5126,
            "count" : 6446,
            "type" : "VEC2"
        },
        {
            "bufferView" : 12,
            "componentType" : 5123,
            "count" : 35550,
            "type" : "SCALAR"
        }
    ],
    "bufferViews" : [
        {
            "buffer" : 0,
            "byteLength" : 3456,
            "byteOffset" : 0
        },
        {
            "buffer" : 0,
            "byteLength" : 3456,
            "byteOffset" : 3456
        },
        {
            "buffer" : 0,
            "byteLength" : 2304,
            "byteOffset" : 6912
        },
        {
            "buffer" : 0,
            "byteLength" : 3060,
            "byteOffset" : 9216
        },
        {
            "buffer" : 0,
            "byteLength" : 6838,
            "byteOffset" : 12276
        },
        {
            "buffer" : 0,
            "byteLength" : 3672,
            "byteOffset" : 19116
        },
        {
            "buffer" : 0,
            "byteLength" : 3672,
            "byteOffset" : 22788
        },
        {
            "buffer" : 0,
            "byteLength" : 2448,
            "byteOffset" : 26460
        },
        {
            "buffer" : 0,
            "byteLength" : 3264,
            "byteOffset" : 28908
        },
        {
            "buffer" : 0,
            "byteLength" : 77352,
            "byteOffset" : 32172
        },
        {
            "buffer" : 0,
            "byteLength" : 77352,
            "byteOffset" : 109524
        },
        {
            "buffer" : 0,
            "byteLength" : 51568,
            "byteOffset" : 186876
        },
        {
            "buffer" : 0,
            "byteLength" : 71100,
            "byteOffset" : 238444
        }
    ],
    "samplers" : [
        {
            "magFilter" : 9729,
            "minFilter" : 9987
        }
    ],
    "buffers" : [
        {
            "byteLength" : 309544,
            "uri" : "data:application/octet-stream;base64,"
        }
    ]
}
